<?xml version="1.0" encoding="UTF-8"?><svg id="Layer_2" xmlns="http://www.w3.org/2000/svg" viewBox="0 0 359.04 61.02"><defs><style>.cls-1{fill:#1d1d1b;}</style></defs><g id="Layer_1-2"><g><path class="cls-1" d="M13.62,1.86l9.42,31.02L34.2,1.86h13.44v.66h-5.46V43.92h5.46v.66H29.34v-.66h5.4V2.52l-15.3,42.54h-.54L6.12,2.52V43.92h5.64v.66H0v-.66H5.46V2.52H0v-.66s13.62,0,13.62,0Z"/><path class="cls-1" d="M64.68,18.42v.66h-5.22l7.92,18.18,6.54-18.18h-4.14v-.66h8.22v.66h-3.36l-10.44,29.16c-1.44,3.96-2.64,6.84-3.72,8.7-1.08,1.86-2.04,2.94-2.76,3.42-.72,.48-1.62,.66-2.64,.66-2.34,0-4.08-1.98-4.08-3.72,0-1.14,.96-2.16,2.94-2.16,1.14,0,2.7,.42,2.7,1.68,0,.72-.48,1.56-.48,2.22,0,.54,.3,.78,.84,.78,1.5,0,3.84-4.08,7.44-14.22l-11.88-26.52h-3.3v-.66h15.42Z"/><path class="cls-1" d="M114.06,1.86v.66h-5.46V43.92h4.38c7.92,0,14.94-4.98,16.5-12.96h.48v13.62h-34.2v-.66h5.4V2.52h-5.4v-.66s18.3,0,18.3,0Z"/><path class="cls-1" d="M145.92,18.42v25.5h4.32v.66h-14.64v-.66h4.32V19.08h-4.32v-.66h10.32Zm-3.36-10.44c-2.16,0-3.9-1.8-3.9-3.9s1.74-3.9,3.9-3.9,3.9,1.74,3.9,3.9-1.74,3.9-3.9,3.9Z"/><path class="cls-1" d="M172.68,6.72c-1.92,0-2.94-.6-2.94-1.74,0-.12,.42-2.76,.42-2.88,0-1.14-.84-1.44-1.62-1.44-1.08,0-1.86,.3-2.4,1.14-.9,1.38-1.14,3.78-1.14,6.12v10.5h4.56v.66h-4.56v24.84h4.56v.66h-14.88v-.66h4.32V19.08h-4.32v-.66h4.32c.06-3.78,.12-8.76,1.74-12.6,1.38-3.3,4.2-5.82,8.46-5.82s6.36,2.7,6.36,4.92c0,1.26-1.2,1.8-2.88,1.8h0Z"/><path class="cls-1" d="M181.44,30v2.52c0,6.9,.3,12.54,6.54,12.54,4.38,0,8.1-2.34,9.78-5.94l.6,.24c-1.68,3.96-5.82,6.36-10.38,6.36-7.56,0-13.26-5.52-13.26-13.5s6-14.94,12.84-14.94c5.52,0,10.98,5.04,10.98,12.72h-17.1Zm11.4-.66c-.12-5.34-.3-8.76-2.1-10.38-.84-.72-1.92-1.02-3.48-1.02-2.76,0-4.2,1.2-4.98,3.3-.6,1.62-.72,3.72-.78,5.58l-.06,2.52s11.4,0,11.4,0Z"/><path class="cls-1" d="M234.18,.24h.48l17.46,43.68h4.32v.66h-18.12v-.66h5.76l-5.82-15.06h-14.7l-5.88,15.06h5.16v.66h-10.26v-.66h4.26L234.18,.24Zm-10.32,27.96h14.1l-7.08-17.82-7.02,17.82Z"/><path class="cls-1" d="M273.48,18.42h.48v6.3h-.48c-.78-4.56-3.48-6.78-6.78-6.78-2.64,0-4.86,1.38-4.86,4.14,0,2.22,1.32,3.78,3.6,5.04,2.46,1.56,4.86,2.52,7.44,4.08,2.46,1.5,3.78,2.94,3.78,5.64,0,2.22-1.02,4.56-3.12,6.3-2.04,1.74-4.68,2.58-7.26,2.58-1.32,0-2.88-.3-4.62-.96-1.68-.6-2.64-.9-3.06-.9-.66,0-1.08,.24-1.32,.72h-.48v-8.7h.48c1.2,6,4.86,9.18,9.24,9.18s6.36-2.34,6.36-4.92c0-2.04-1.44-3.42-4.26-4.74s-5.22-2.46-7.2-3.84c-1.92-1.38-2.88-3.54-2.88-6.36,0-2.34,.78-4.2,2.34-5.7s3.66-2.22,5.7-2.22c2.88,0,4.74,1.5,5.94,1.5,.48,0,.66-.06,.96-.36h0Z"/><path class="cls-1" d="M306.12,1.86v.66h-6.6l13.2,33.78,9.96-25.2-3.42-8.58h-4.2v-.66h18.78v.66h-6.54l13.08,33.78,13.5-33.78h-5.22v-.66h10.38v.66h-4.38l-17.46,43.68h-.54l-13.56-34.14-13.62,34.14h-.54L291.48,2.52h-4.2v-.66h18.84Z"/></g><g><path class="cls-1" d="M197.51,54.8c.03-.09,.08-.15,.14-.19s.14-.05,.25-.05c.12,0,.21,.03,.25,.09s.07,.18,.07,.36v.89c0,.27,0,.39,0,.36,0,.15-.03,.26-.08,.31s-.15,.08-.28,.08c-.21,0-.35-.15-.42-.46-.02-.09-.04-.16-.05-.21-.06-.24-.21-.44-.44-.6s-.51-.23-.83-.23c-.58,0-1.04,.21-1.39,.63-.35,.42-.52,.99-.52,1.69s.18,1.27,.53,1.69c.35,.42,.82,.63,1.4,.63,.19,0,.38-.03,.58-.08s.39-.13,.58-.24c.09-.05,.21-.12,.36-.23s.26-.16,.33-.16c.1,0,.19,.03,.26,.1s.1,.15,.1,.25-.04,.19-.11,.28c-.08,.09-.22,.2-.43,.33-.27,.18-.55,.31-.83,.4-.28,.09-.57,.13-.87,.13-.8,0-1.47-.28-1.99-.85s-.79-1.29-.79-2.18,.27-1.6,.8-2.18,1.2-.87,2-.87c.21,0,.43,.03,.66,.08s.46,.13,.71,.23h0Z"/><path class="cls-1" d="M200.88,59.75h.33c.19,0,.32,.03,.4,.08s.12,.14,.12,.26c0,.13-.03,.22-.1,.27s-.2,.08-.39,.08h-1.64c-.11,0-.2-.03-.25-.09s-.09-.15-.09-.26c0-.12,.03-.21,.1-.26s.17-.08,.32-.08h.44v-4.44h-.28c-.24,0-.4-.02-.47-.07s-.11-.13-.11-.26c0-.11,.03-.19,.09-.25s.14-.08,.26-.08h2.06c.5,0,.87,.02,1.12,.07s.45,.13,.62,.24c.22,.15,.39,.34,.52,.58s.19,.5,.19,.78c0,.37-.11,.7-.34,.96s-.55,.46-.96,.56c.08,.05,.16,.11,.23,.17s.13,.14,.19,.23l.98,1.5h.16c.18,0,.31,.03,.38,.08s.1,.14,.1,.26c0,.11-.03,.2-.09,.26s-.14,.09-.25,.09h-.55c-.16,0-.32-.12-.47-.35-.02-.02-.03-.04-.04-.05l-.94-1.42c-.19-.29-.35-.48-.48-.56s-.29-.13-.5-.13h-.65v1.82h-.01Zm0-4.43v1.97h1.01c.46,0,.8-.08,1.03-.25s.34-.41,.34-.73-.11-.58-.34-.74-.56-.25-1.01-.25h-1.03Z"/><path class="cls-1" d="M205.88,60.43h-.23c-.12,0-.21-.03-.27-.09s-.09-.15-.09-.26c0-.13,.04-.22,.1-.27s.23-.07,.48-.07h.31v-4.4h-.31c-.24,0-.4-.03-.48-.08s-.11-.14-.11-.28c0-.12,.03-.21,.09-.27s.15-.09,.28-.09h4.25c.11,0,.19,.03,.25,.1s.09,.16,.09,.29v1.15c0,.17-.02,.29-.07,.35s-.14,.1-.26,.1c-.13,0-.23-.04-.28-.11s-.08-.23-.08-.48v-.7h-2.6v1.65h1.28v-.26c0-.18,.02-.3,.07-.37s.13-.1,.25-.1,.19,.04,.24,.11,.07,.23,.07,.47v.91c0,.24-.02,.4-.07,.47s-.13,.1-.24,.1-.2-.04-.24-.12-.07-.23-.07-.45v-.17h-1.28v2.16h2.6v-.79c0-.25,.03-.41,.08-.48s.14-.11,.28-.11c.12,0,.21,.03,.26,.1s.08,.19,.08,.38v1.23c0,.12-.03,.21-.09,.27s-.14,.09-.25,.09h-4.03v.02Z"/><path class="cls-1" d="M213.22,55.35h-.71c-.2,0-.34-.03-.42-.08s-.12-.14-.12-.27,.04-.23,.1-.28,.26-.08,.57-.08h1.39c.18,0,.3,.02,.36,.07s.12,.13,.17,.26l1.91,4.77h.08c.18,0,.3,.02,.36,.07s.1,.14,.1,.26c0,.13-.03,.23-.09,.28s-.18,.08-.35,.08h-1.33c-.25,0-.41-.03-.48-.08s-.1-.14-.1-.28c0-.12,.04-.21,.11-.26s.22-.08,.43-.08h.45l-.47-1.16h-2.48l-.42,1.16h.47c.21,0,.36,.03,.44,.08s.12,.14,.12,.26c0,.13-.04,.23-.1,.28s-.22,.08-.46,.08h-1.28c-.21,0-.35-.03-.42-.08s-.1-.14-.1-.28,.03-.21,.1-.26,.2-.07,.4-.07h.09l1.66-4.4h.02Zm-.25,2.6h2l-1.05-2.59-.95,2.59Z"/><path class="cls-1" d="M218.15,56.62c0,.24-.04,.4-.09,.47-.05,.07-.15,.1-.3,.1-.11,0-.2-.03-.26-.09s-.09-.15-.09-.27v-.23l.05-1.61c0-.12,.04-.21,.1-.26s.15-.08,.27-.08h4.24c.12,0,.21,.03,.27,.08s.09,.14,.09,.26l.05,1.61v.17c0,.06,0,.08,0,.07,0,.12-.03,.2-.09,.26s-.15,.09-.28,.09-.22-.03-.27-.1-.08-.22-.08-.47l-.05-1.27h-1.4v4.4h.94c.14,0,.24,.03,.3,.08s.09,.14,.09,.26-.03,.2-.09,.26-.14,.09-.25,.09h-2.74c-.11,0-.2-.03-.25-.09s-.09-.15-.09-.26c0-.12,.03-.21,.1-.26s.17-.08,.32-.08h.91v-4.4h-1.4l-.05,1.27h.05Z"/><path class="cls-1" d="M223.89,60.43h-.23c-.12,0-.21-.03-.27-.09s-.09-.15-.09-.26c0-.13,.04-.22,.1-.27s.23-.07,.48-.07h.31v-4.4h-.31c-.24,0-.4-.03-.48-.08s-.11-.14-.11-.28c0-.12,.03-.21,.09-.27s.15-.09,.28-.09h4.25c.11,0,.19,.03,.25,.1s.09,.16,.09,.29v1.15c0,.17-.02,.29-.07,.35s-.14,.1-.26,.1c-.13,0-.23-.04-.28-.11s-.08-.23-.08-.48v-.7h-2.6v1.65h1.28v-.26c0-.18,.02-.3,.07-.37s.13-.1,.25-.1,.19,.04,.24,.11,.07,.23,.07,.47v.91c0,.24-.02,.4-.07,.47s-.13,.1-.24,.1-.2-.04-.24-.12-.07-.23-.07-.45v-.17h-1.28v2.16h2.6v-.79c0-.25,.03-.41,.08-.48s.14-.11,.28-.11c.12,0,.21,.03,.26,.1s.08,.19,.08,.38v1.23c0,.12-.03,.21-.09,.27s-.14,.09-.25,.09h-4.03v.02Z"/><path class="cls-1" d="M230.81,60.43h-.99c-.12,0-.21-.03-.27-.09s-.09-.15-.09-.26c0-.13,.04-.21,.1-.26s.2-.07,.4-.07h.09v-4.4h-.08c-.2,0-.33-.03-.4-.08s-.11-.14-.11-.27c0-.12,.03-.21,.09-.27s.15-.09,.28-.09h2.06c.81,0,1.46,.26,1.94,.78s.72,1.23,.72,2.12c0,.43-.07,.83-.21,1.21s-.34,.7-.6,.98c-.24,.25-.54,.44-.89,.55s-.8,.17-1.35,.17h-.69v-.02Zm0-.69c.1,0,.21,.02,.31,.02h.3c.8,0,1.39-.18,1.76-.54s.56-.92,.56-1.69-.19-1.34-.56-1.69-.97-.53-1.8-.53h-.35c-.08,0-.15,0-.22,.02v4.4h0Z"/><path class="cls-1" d="M243.92,60.43h-2.19c-.11,0-.2-.03-.26-.09s-.09-.15-.09-.26c0-.13,.04-.22,.11-.27s.24-.07,.51-.07h.16v-4.4h-.16c-.25,0-.41-.03-.48-.08s-.11-.14-.11-.28c0-.11,.03-.2,.09-.26s.14-.09,.25-.09h2.28c.69,0,1.22,.13,1.58,.4s.54,.66,.54,1.17c0,.26-.06,.48-.17,.67s-.27,.35-.49,.47c.35,.13,.61,.3,.78,.53s.26,.52,.26,.87c0,.3-.07,.57-.22,.81s-.35,.44-.62,.6c-.16,.09-.34,.16-.53,.2s-.47,.06-.83,.06h-.42v.02Zm-.97-3.29h1.02c.46,0,.8-.07,1.03-.22s.33-.37,.33-.68c0-.29-.1-.51-.3-.67s-.49-.23-.87-.23h-1.21v1.8Zm0,2.6h1.08c.61,0,1.04-.08,1.29-.23s.38-.41,.38-.77-.12-.62-.36-.77-.66-.23-1.26-.23h-1.13v2Z"/><path class="cls-1" d="M251.05,59.75c.25,0,.41,.02,.48,.07s.1,.14,.1,.27-.04,.23-.1,.28-.21,.08-.42,.08h-2.32c-.21,0-.35-.03-.42-.08s-.1-.14-.1-.28,.04-.22,.11-.27,.24-.07,.48-.07h.71v-1.62l-1.63-2.78h-.08c-.2,0-.33-.03-.4-.08s-.11-.14-.11-.27c0-.12,.03-.21,.09-.27s.15-.09,.28-.09h1.34c.19,0,.32,.03,.39,.08s.1,.14,.1,.27-.04,.22-.12,.27-.23,.08-.44,.08h-.16l1.18,2.12,1.23-2.12h-.2c-.18,0-.3-.03-.37-.08s-.1-.14-.1-.27,.03-.23,.09-.28,.21-.07,.44-.07h.9c.25,0,.41,.03,.48,.08s.1,.14,.1,.28-.04,.22-.1,.27-.2,.08-.4,.08h-.08l-1.66,2.85v1.55h.71Z"/><path class="cls-1" d="M260.72,59.18l.84-2.92c.03-.1,.06-.17,.1-.2s.1-.04,.2-.04h.22c.09,0,.16,0,.2,.04s.08,.09,.1,.18l.95,2.94,.48-3.88h-.77c-.15,0-.26-.03-.33-.08s-.1-.14-.1-.25c0-.12,.03-.21,.1-.26s.19-.07,.37-.07h1.58c.07,0,.13,.03,.19,.1,.05,.06,.08,.14,.08,.24,0,.11-.03,.19-.09,.25-.06,.05-.16,.08-.28,.08h-.06l-.69,4.88c0,.1-.03,.17-.06,.2s-.07,.05-.13,.05h-.35c-.07,0-.13-.01-.17-.04s-.07-.08-.1-.17l-1.06-3.36-.94,3.37c-.02,.08-.05,.14-.09,.16s-.09,.04-.18,.04h-.37c-.06,0-.11-.02-.14-.05s-.05-.1-.07-.21l-.74-4.87h-.06c-.13,0-.22-.03-.29-.08s-.1-.14-.1-.24,.03-.18,.08-.24,.12-.09,.19-.09h1.58c.18,0,.3,.02,.37,.07s.1,.14,.1,.26c0,.11-.04,.2-.1,.25s-.18,.08-.32,.08h-.69l.53,3.88,.02-.02Z"/><path class="cls-1" d="M265.89,60.43h-.23c-.12,0-.21-.03-.27-.09s-.09-.15-.09-.26c0-.13,.04-.22,.1-.27,.07-.05,.23-.07,.48-.07h.31v-4.4h-.31c-.24,0-.4-.03-.48-.08s-.11-.14-.11-.28c0-.12,.03-.21,.09-.27s.15-.09,.28-.09h4.25c.11,0,.19,.03,.25,.1s.09,.16,.09,.29v1.15c0,.17-.02,.29-.07,.35s-.14,.1-.26,.1c-.13,0-.23-.04-.28-.11s-.08-.23-.08-.48v-.7h-2.6v1.65h1.28v-.26c0-.18,.02-.3,.07-.37,.05-.07,.13-.1,.25-.1s.19,.04,.24,.11,.07,.23,.07,.47v.91c0,.24-.02,.4-.07,.47-.05,.07-.13,.1-.24,.1s-.2-.04-.24-.12-.07-.23-.07-.45v-.17h-1.28v2.16h2.6v-.79c0-.25,.03-.41,.08-.48s.14-.11,.28-.11c.12,0,.21,.03,.26,.1,.05,.07,.08,.19,.08,.38v1.23c0,.12-.03,.21-.09,.27s-.14,.09-.25,.09h-4.03v.02Z"/><path class="cls-1" d="M272.9,59.75h.33c.19,0,.32,.03,.4,.08s.12,.14,.12,.26c0,.13-.03,.22-.1,.27s-.2,.08-.39,.08h-1.64c-.11,0-.2-.03-.25-.09s-.09-.15-.09-.26c0-.12,.03-.21,.1-.26,.06-.05,.17-.08,.32-.08h.44v-4.44h-.28c-.24,0-.4-.02-.47-.07s-.11-.13-.11-.26c0-.11,.03-.19,.08-.25,.06-.06,.14-.08,.26-.08h2.06c.5,0,.87,.02,1.12,.07s.45,.13,.62,.24c.22,.15,.39,.34,.51,.58,.13,.24,.19,.5,.19,.78,0,.37-.12,.7-.34,.96s-.55,.46-.96,.56c.08,.05,.16,.11,.23,.17s.13,.14,.19,.23l.98,1.5h.16c.18,0,.31,.03,.38,.08s.1,.14,.1,.26c0,.11-.03,.2-.09,.26-.06,.06-.14,.09-.25,.09h-.55c-.16,0-.32-.12-.47-.35-.02-.02-.03-.04-.04-.05l-.94-1.42c-.19-.29-.35-.48-.48-.56-.12-.08-.29-.13-.5-.13h-.65v1.82h0Zm0-4.43v1.97h1.01c.46,0,.8-.08,1.03-.25s.34-.41,.34-.73-.11-.58-.34-.74-.56-.25-1.01-.25h-1.03Z"/><path class="cls-1" d="M282.63,57.53c0,.89-.25,1.62-.74,2.19-.5,.57-1.13,.86-1.9,.86s-1.4-.29-1.89-.86c-.5-.57-.74-1.3-.74-2.19s.25-1.63,.74-2.2,1.12-.85,1.9-.85,1.4,.29,1.9,.86c.49,.57,.74,1.3,.74,2.19h0Zm-2.64,2.36c.55,0,.98-.21,1.29-.63s.47-1,.47-1.73-.16-1.32-.47-1.73c-.31-.42-.74-.63-1.29-.63s-.98,.21-1.29,.62c-.31,.42-.47,1-.47,1.74s.16,1.32,.47,1.73c.31,.42,.74,.63,1.29,.63Z"/><path class="cls-1" d="M284.66,59.75h.61c.18,0,.3,.03,.38,.08,.07,.05,.11,.14,.11,.26,0,.13-.04,.23-.11,.28-.07,.05-.22,.08-.46,.08h-1.45c-.12,0-.21-.03-.26-.09s-.09-.15-.09-.26c0-.13,.03-.22,.1-.27,.07-.05,.2-.07,.39-.07h.09v-4.4h-.12c-.27,0-.46-.03-.55-.08-.1-.05-.14-.14-.14-.27,0-.12,.04-.21,.12-.26s.22-.08,.4-.08h.75c.15,0,.25,.02,.31,.05s.13,.12,.21,.26l2.46,4.25v-3.86h-.54c-.18,0-.3-.03-.38-.09-.08-.06-.12-.15-.12-.27,0-.13,.03-.23,.1-.28s.21-.08,.43-.08h1.4c.12,0,.2,.03,.26,.09s.09,.15,.09,.26c0,.13-.04,.22-.11,.27-.07,.05-.2,.08-.38,.08h-.06v4.92c0,.09-.02,.16-.07,.2s-.15,.05-.3,.05-.26,0-.3-.03c-.04-.02-.1-.1-.19-.25l-2.6-4.48v3.99h.02Z"/><path class="cls-1" d="M293.47,59.75c.25,0,.41,.02,.48,.07s.11,.14,.11,.27-.04,.23-.11,.28c-.07,.05-.23,.08-.48,.08h-3.19c-.12,0-.21-.03-.27-.09s-.09-.15-.09-.26c0-.13,.04-.22,.11-.27,.07-.05,.23-.07,.48-.07h1.1v-4.4h-1.1c-.24,0-.4-.03-.48-.08-.08-.05-.11-.14-.11-.28,0-.12,.03-.21,.09-.27s.15-.09,.28-.09h3.41c.12,0,.21,.03,.27,.09s.09,.15,.09,.26c0,.13-.04,.23-.11,.28s-.23,.08-.48,.08h-1.1v4.4h1.1Z"/><path class="cls-1" d="M296.99,59.75h.33c.19,0,.33,.03,.41,.08s.12,.14,.12,.26c0,.13-.03,.22-.1,.27s-.2,.08-.39,.08h-1.67c-.11,0-.19-.03-.25-.09s-.08-.15-.08-.26c0-.12,.03-.21,.09-.26s.17-.08,.33-.08h.47v-4.4h-.31c-.25,0-.41-.03-.47-.08s-.1-.14-.1-.28c0-.11,.03-.2,.08-.26,.06-.06,.14-.09,.25-.09h1.67c.19,0,.32,.03,.39,.08s.1,.14,.1,.27-.04,.22-.13,.27-.25,.08-.5,.08h-.22v1.99l2.04-1.99h-.17c-.16,0-.28-.03-.35-.08-.07-.06-.11-.15-.11-.27s.03-.22,.08-.27,.14-.08,.27-.08h1.44c.11,0,.2,.03,.25,.09s.09,.15,.09,.26c0,.13-.04,.22-.12,.27s-.21,.08-.41,.08h-.07l-1.89,1.83c.28,.06,.56,.24,.82,.55s.67,.98,1.23,2.03h.09c.2,0,.34,.02,.41,.07s.1,.14,.1,.26c0,.11-.03,.2-.09,.26-.06,.06-.14,.09-.25,.09h-.47c-.1,0-.18-.01-.23-.03-.05-.02-.09-.07-.14-.16-.03-.05-.21-.38-.54-.99l-.19-.36c-.21-.38-.41-.67-.62-.86s-.42-.3-.65-.33l-.54,.51v1.53h0Z"/><path class="cls-1" d="M303.23,55.35h-.71c-.2,0-.34-.03-.42-.08-.08-.05-.12-.14-.12-.27s.04-.23,.1-.28c.07-.05,.26-.08,.57-.08h1.39c.18,0,.3,.02,.36,.07s.12,.13,.17,.26l1.91,4.77h.08c.18,0,.3,.02,.36,.07s.1,.14,.1,.26c0,.13-.03,.23-.09,.28-.06,.05-.18,.08-.35,.08h-1.33c-.25,0-.41-.03-.48-.08s-.1-.14-.1-.28c0-.12,.04-.21,.11-.26,.08-.05,.22-.08,.43-.08h.45l-.47-1.16h-2.48l-.42,1.16h.47c.21,0,.36,.03,.44,.08s.12,.14,.12,.26c0,.13-.04,.23-.11,.28-.07,.05-.22,.08-.46,.08h-1.28c-.21,0-.35-.03-.42-.08s-.1-.14-.1-.28,.03-.21,.1-.26,.2-.07,.4-.07h.09l1.66-4.4h.03Zm-.25,2.6h2l-1.05-2.59-.95,2.59Z"/><path class="cls-1" d="M318.63,57.53c0,.89-.25,1.62-.74,2.19-.5,.57-1.13,.86-1.9,.86s-1.4-.29-1.89-.86c-.5-.57-.74-1.3-.74-2.19s.25-1.63,.74-2.2,1.12-.85,1.9-.85,1.4,.29,1.9,.86c.49,.57,.74,1.3,.74,2.19h0Zm-2.64,2.36c.55,0,.98-.21,1.29-.63s.47-1,.47-1.73-.16-1.32-.47-1.73c-.31-.42-.74-.63-1.29-.63s-.98,.21-1.29,.62c-.31,.42-.47,1-.47,1.74s.16,1.32,.47,1.73c.31,.42,.74,.63,1.29,.63Z"/><path class="cls-1" d="M320.73,59.18l.84-2.92c.03-.1,.06-.17,.1-.2,.04-.03,.11-.04,.2-.04h.22c.09,0,.16,0,.2,.04,.04,.03,.08,.09,.11,.18l.95,2.94,.48-3.88h-.77c-.15,0-.26-.03-.33-.08-.07-.05-.1-.14-.1-.25,0-.12,.03-.21,.1-.26s.19-.07,.37-.07h1.58c.07,0,.13,.03,.19,.1,.05,.06,.08,.14,.08,.24,0,.11-.03,.19-.09,.25-.06,.05-.16,.08-.28,.08h-.06l-.69,4.88c0,.1-.03,.17-.06,.2s-.07,.05-.13,.05h-.35c-.08,0-.13-.01-.17-.04s-.07-.08-.1-.17l-1.06-3.36-.94,3.37c-.02,.08-.05,.14-.09,.16-.04,.03-.09,.04-.18,.04h-.37c-.07,0-.11-.02-.14-.05-.03-.03-.05-.1-.07-.21l-.74-4.87h-.06c-.13,0-.22-.03-.29-.08s-.09-.14-.09-.24,.03-.18,.08-.24,.12-.09,.19-.09h1.58c.18,0,.3,.02,.37,.07s.1,.14,.1,.26c0,.11-.04,.2-.11,.25-.07,.05-.18,.08-.32,.08h-.69l.53,3.88v-.02Z"/><path class="cls-1" d="M329.54,54.8c.03-.09,.08-.15,.14-.19s.14-.05,.25-.05c.12,0,.21,.03,.25,.09s.07,.18,.07,.36v.89c0,.27,0,.39,0,.36,0,.15-.03,.26-.08,.31-.05,.05-.15,.08-.28,.08-.21,0-.36-.15-.42-.46-.02-.09-.04-.16-.05-.21-.06-.24-.21-.44-.44-.6s-.51-.23-.83-.23c-.58,0-1.04,.21-1.39,.63-.35,.42-.52,.99-.52,1.69s.18,1.27,.53,1.69c.35,.42,.82,.63,1.4,.63,.19,0,.38-.03,.58-.08s.39-.13,.58-.24c.09-.05,.21-.12,.36-.23s.26-.16,.33-.16c.1,0,.19,.03,.26,.1s.11,.15,.11,.25-.04,.19-.12,.28-.22,.2-.43,.33c-.27,.18-.55,.31-.83,.4-.28,.09-.57,.13-.87,.13-.8,0-1.47-.28-1.99-.85s-.79-1.29-.79-2.18,.26-1.6,.8-2.18c.53-.58,1.2-.87,2-.87,.21,0,.43,.03,.66,.08,.22,.05,.46,.13,.71,.23h.01Z"/><path class="cls-1" d="M332.86,55.35l-.05,1.02v.23c0,.12-.03,.2-.09,.26-.06,.05-.15,.08-.28,.08s-.21-.03-.26-.1-.08-.17-.08-.31v-.19l.06-1.35c0-.12,.04-.2,.09-.26,.06-.06,.15-.08,.28-.08h2.79c.19,0,.34,.04,.43,.11s.15,.18,.15,.32c0,.07-.02,.15-.05,.23-.03,.08-.08,.17-.13,.26l-2.88,4.19h2.26l.06-1.14v-.02c.02-.37,.14-.56,.37-.56,.12,0,.21,.03,.26,.1,.05,.07,.08,.17,.08,.32v.18l-.07,1.48c0,.12-.03,.21-.09,.26s-.15,.08-.28,.08h-3.07c-.14,0-.25-.04-.34-.12s-.13-.19-.13-.32c0-.08,.02-.16,.06-.26s.1-.2,.18-.32l2.8-4.07h-2.07v-.02Z"/><path class="cls-1" d="M339.24,55.35h-.71c-.2,0-.34-.03-.42-.08-.08-.05-.12-.14-.12-.27s.04-.23,.1-.28c.07-.05,.26-.08,.57-.08h1.39c.18,0,.3,.02,.36,.07s.12,.13,.17,.26l1.91,4.77h.08c.18,0,.3,.02,.36,.07s.1,.14,.1,.26c0,.13-.03,.23-.09,.28-.06,.05-.18,.08-.35,.08h-1.33c-.25,0-.41-.03-.48-.08s-.1-.14-.1-.28c0-.12,.04-.21,.11-.26,.08-.05,.22-.08,.43-.08h.45l-.47-1.16h-2.48l-.42,1.16h.47c.21,0,.36,.03,.44,.08s.12,.14,.12,.26c0,.13-.04,.23-.11,.28-.07,.05-.22,.08-.46,.08h-1.28c-.21,0-.35-.03-.42-.08s-.1-.14-.1-.28,.03-.21,.1-.26,.2-.07,.4-.07h.09l1.66-4.4h.03Zm-.25,2.6h2l-1.05-2.59-.95,2.59Z"/><path class="cls-1" d="M344.91,59.75h.33c.19,0,.32,.03,.4,.08s.12,.14,.12,.26c0,.13-.03,.22-.1,.27s-.2,.08-.39,.08h-1.64c-.11,0-.2-.03-.25-.09s-.09-.15-.09-.26c0-.12,.03-.21,.1-.26,.06-.05,.17-.08,.32-.08h.44v-4.44h-.28c-.24,0-.4-.02-.47-.07s-.11-.13-.11-.26c0-.11,.03-.19,.08-.25,.06-.06,.14-.08,.26-.08h2.06c.5,0,.87,.02,1.12,.07s.45,.13,.62,.24c.22,.15,.39,.34,.51,.58,.13,.24,.19,.5,.19,.78,0,.37-.12,.7-.34,.96s-.55,.46-.96,.56c.08,.05,.16,.11,.23,.17s.13,.14,.19,.23l.98,1.5h.16c.18,0,.31,.03,.38,.08s.1,.14,.1,.26c0,.11-.03,.2-.09,.26-.06,.06-.14,.09-.25,.09h-.55c-.16,0-.32-.12-.47-.35-.02-.02-.03-.04-.04-.05l-.94-1.42c-.19-.29-.35-.48-.48-.56-.12-.08-.29-.13-.5-.13h-.65v1.82h0Zm0-4.43v1.97h1.01c.46,0,.8-.08,1.03-.25s.34-.41,.34-.73-.11-.58-.34-.74-.56-.25-1.01-.25h-1.03Z"/><path class="cls-1" d="M350.86,55.35l-.05,1.02v.23c0,.12-.03,.2-.09,.26-.06,.05-.15,.08-.28,.08s-.21-.03-.26-.1-.08-.17-.08-.31v-.19l.06-1.35c0-.12,.04-.2,.09-.26,.06-.06,.15-.08,.28-.08h2.79c.19,0,.34,.04,.43,.11s.15,.18,.15,.32c0,.07-.02,.15-.05,.23-.03,.08-.08,.17-.13,.26l-2.88,4.19h2.26l.06-1.14v-.02c.02-.37,.14-.56,.37-.56,.12,0,.21,.03,.26,.1,.05,.07,.08,.17,.08,.32v.18l-.07,1.48c0,.12-.03,.21-.09,.26s-.15,.08-.28,.08h-3.07c-.14,0-.25-.04-.34-.12s-.13-.19-.13-.32c0-.08,.02-.16,.06-.26s.1-.2,.18-.32l2.8-4.07h-2.07v-.02Z"/></g></g></svg>