<?xml version="1.0" encoding="UTF-8"?><svg id="Layer_1" xmlns="http://www.w3.org/2000/svg" viewBox="0 0 564.66 34.4"><defs><style>.cls-1{fill:#1d1d1b;}.cls-2{fill:#fff;stroke:#fff;}.cls-2,.cls-3{stroke-miterlimit:10;}.cls-3{fill:#b79584;stroke:#b79584;}</style></defs><g><g><path class="cls-1" d="M62.03,16.79l2.63,8.65,3.11-8.65h3.75v.18h-1.52v11.55h1.52v.18h-5.11v-.18h1.51v-11.55l-4.27,11.87h-.15l-3.57-11.87v11.55h1.57v.18h-3.28v-.18h1.52v-11.55h-1.52v-.18s3.8,0,3.8,0Z"/><path class="cls-1" d="M76.27,21.41v.18h-1.46l2.21,5.07,1.82-5.07h-1.16v-.18h2.29v.18h-.94l-2.91,8.14c-.4,1.1-.74,1.91-1.04,2.43-.3,.52-.57,.82-.77,.95-.2,.13-.45,.18-.74,.18-.65,0-1.14-.55-1.14-1.04,0-.32,.27-.6,.82-.6,.32,0,.75,.12,.75,.47,0,.2-.13,.44-.13,.62,0,.15,.08,.22,.23,.22,.42,0,1.07-1.14,2.08-3.97l-3.31-7.4h-.92v-.18h4.3Z"/><path class="cls-1" d="M90.05,16.79v.18h-1.52v11.55h1.22c2.21,0,4.17-1.39,4.6-3.62h.13v3.8h-9.54v-.18h1.51v-11.55h-1.51v-.18s5.11,0,5.11,0Z"/><path class="cls-1" d="M98.94,21.41v7.11h1.21v.18h-4.08v-.18h1.21v-6.93h-1.21v-.18h2.88Zm-.94-2.91c-.6,0-1.09-.5-1.09-1.09s.49-1.09,1.09-1.09,1.09,.49,1.09,1.09-.49,1.09-1.09,1.09Z"/><path class="cls-1" d="M106.41,18.14c-.54,0-.82-.17-.82-.49,0-.03,.12-.77,.12-.8,0-.32-.23-.4-.45-.4-.3,0-.52,.08-.67,.32-.25,.39-.32,1.05-.32,1.71v2.93h1.27v.18h-1.27v6.93h1.27v.18h-4.15v-.18h1.21v-6.93h-1.21v-.18h1.21c.02-1.05,.03-2.44,.49-3.52,.39-.92,1.17-1.62,2.36-1.62s1.77,.75,1.77,1.37c0,.35-.33,.5-.8,.5h0Z"/><path class="cls-1" d="M108.85,24.64v.7c0,1.93,.08,3.5,1.82,3.5,1.22,0,2.26-.65,2.73-1.66l.17,.07c-.47,1.1-1.62,1.77-2.9,1.77-2.11,0-3.7-1.54-3.7-3.77s1.67-4.17,3.58-4.17c1.54,0,3.06,1.41,3.06,3.55h-4.77Zm3.18-.18c-.03-1.49-.08-2.44-.59-2.9-.23-.2-.54-.28-.97-.28-.77,0-1.17,.33-1.39,.92-.17,.45-.2,1.04-.22,1.56l-.02,.7s3.18,0,3.18,0Z"/><path class="cls-1" d="M123.57,16.33h.13l4.87,12.19h1.21v.18h-5.06v-.18h1.61l-1.62-4.2h-4.1l-1.64,4.2h1.44v.18h-2.86v-.18h1.19l4.84-12.19Zm-2.88,7.8h3.93l-1.98-4.97-1.96,4.97Z"/><path class="cls-1" d="M134.53,21.41h.13v1.76h-.13c-.22-1.27-.97-1.89-1.89-1.89-.74,0-1.36,.39-1.36,1.16,0,.62,.37,1.05,1,1.41,.69,.44,1.36,.7,2.08,1.14,.69,.42,1.05,.82,1.05,1.57,0,.62-.28,1.27-.87,1.76-.57,.49-1.31,.72-2.03,.72-.37,0-.8-.08-1.29-.27-.47-.17-.74-.25-.85-.25-.18,0-.3,.07-.37,.2h-.13v-2.43h.13c.33,1.67,1.36,2.56,2.58,2.56s1.77-.65,1.77-1.37c0-.57-.4-.95-1.19-1.32s-1.46-.69-2.01-1.07c-.54-.39-.8-.99-.8-1.77,0-.65,.22-1.17,.65-1.59s1.02-.62,1.59-.62c.8,0,1.32,.42,1.66,.42,.13,0,.18-.02,.27-.1h0Z"/><path class="cls-1" d="M143.64,16.79v.18h-1.84l3.68,9.43,2.78-7.03-.95-2.39h-1.17v-.18h5.24v.18h-1.82l3.65,9.43,3.77-9.43h-1.46v-.18h2.9v.18h-1.22l-4.87,12.19h-.15l-3.78-9.53-3.8,9.53h-.15l-4.87-12.19h-1.17v-.18h5.26Z"/></g><g><path class="cls-1" d="M113.33,31.56s.02-.04,.04-.05,.04-.01,.07-.01c.03,0,.06,0,.07,.03s.02,.05,.02,.1v.25c0,.08,0,.11,0,.1,0,.04,0,.07-.02,.09s-.04,.02-.08,.02c-.06,0-.1-.04-.12-.13,0-.03-.01-.04-.01-.06-.02-.07-.06-.12-.12-.17s-.14-.06-.23-.06c-.16,0-.29,.06-.39,.18-.1,.12-.15,.28-.15,.47s.05,.35,.15,.47c.1,.12,.23,.18,.39,.18,.05,0,.11,0,.16-.02s.11-.04,.16-.07c.03-.01,.06-.03,.1-.06s.07-.04,.09-.04c.03,0,.05,0,.07,.03s.03,.04,.03,.07-.01,.05-.03,.08c-.02,.03-.06,.06-.12,.09-.08,.05-.15,.09-.23,.11-.08,.03-.16,.04-.24,.04-.22,0-.41-.08-.56-.24s-.22-.36-.22-.61,.08-.45,.22-.61,.33-.24,.56-.24c.06,0,.12,0,.18,.02s.13,.04,.2,.06h0Z"/><path class="cls-1" d="M114.27,32.94h.09c.05,0,.09,0,.11,.02s.03,.04,.03,.07c0,.04,0,.06-.03,.08s-.06,.02-.11,.02h-.46s-.06,0-.07-.03-.03-.04-.03-.07c0-.03,0-.06,.03-.07s.05-.02,.09-.02h.12v-1.24h-.08c-.07,0-.11,0-.13-.02s-.03-.04-.03-.07c0-.03,0-.05,.03-.07s.04-.02,.07-.02h.57c.14,0,.24,0,.31,.02s.13,.04,.17,.07c.06,.04,.11,.09,.15,.16s.05,.14,.05,.22c0,.1-.03,.2-.09,.27s-.15,.13-.27,.16c.02,.01,.04,.03,.06,.05s.04,.04,.05,.06l.27,.42h.04c.05,0,.09,0,.11,.02s.03,.04,.03,.07c0,.03,0,.06-.03,.07s-.04,.03-.07,.03h-.15s-.09-.03-.13-.1c0,0,0-.01-.01-.01l-.26-.4c-.05-.08-.1-.13-.13-.16s-.08-.04-.14-.04h-.18v.51h0Zm0-1.24v.55h.28c.13,0,.22-.02,.29-.07s.09-.11,.09-.2-.03-.16-.09-.21-.16-.07-.28-.07h-.29Z"/><path class="cls-1" d="M115.67,33.13h-.06s-.06,0-.08-.03-.03-.04-.03-.07c0-.04,.01-.06,.03-.08s.06-.02,.13-.02h.09v-1.23h-.09c-.07,0-.11,0-.13-.02s-.03-.04-.03-.08c0-.03,0-.06,.03-.08s.04-.03,.08-.03h1.19s.05,0,.07,.03,.03,.04,.03,.08v.32s0,.08-.02,.1-.04,.03-.07,.03c-.04,0-.06-.01-.08-.03s-.02-.06-.02-.13v-.2h-.73v.46h.36v-.07c0-.05,0-.08,.02-.1s.04-.03,.07-.03,.05,.01,.07,.03,.02,.06,.02,.13v.25c0,.07,0,.11-.02,.13s-.04,.03-.07,.03-.06-.01-.07-.03-.02-.06-.02-.13v-.05h-.36v.6h.73v-.22c0-.07,0-.11,.02-.13s.04-.03,.08-.03c.03,0,.06,0,.07,.03s.02,.05,.02,.11v.34s0,.06-.03,.08-.04,.03-.07,.03h-1.13Z"/><path class="cls-1" d="M117.72,31.71h-.2c-.06,0-.09,0-.12-.02s-.03-.04-.03-.08,.01-.06,.03-.08,.07-.02,.16-.02h.39c.05,0,.08,0,.1,.02s.03,.04,.05,.07l.53,1.33h.02c.05,0,.08,0,.1,.02s.03,.04,.03,.07c0,.04,0,.06-.03,.08s-.05,.02-.1,.02h-.37c-.07,0-.11,0-.13-.02s-.03-.04-.03-.08c0-.03,.01-.06,.03-.07s.06-.02,.12-.02h.13l-.13-.32h-.69l-.12,.32h.13c.06,0,.1,0,.12,.02s.03,.04,.03,.07c0,.04-.01,.06-.03,.08s-.06,.02-.13,.02h-.36c-.06,0-.1,0-.12-.02s-.03-.04-.03-.08,0-.06,.03-.07,.06-.02,.11-.02h.03l.46-1.23h0Zm-.07,.73h.56l-.29-.72-.27,.72Z"/><path class="cls-1" d="M119.09,32.06c0,.07-.01,.11-.03,.13-.01,.02-.04,.03-.08,.03-.03,0-.06,0-.07-.03s-.03-.04-.03-.08v-.51s.03-.06,.04-.07,.04-.02,.08-.02h1.18s.06,0,.08,.02,.03,.04,.03,.07v.45s.01,.03,.01,.05,0,.02,0,.02c0,.03,0,.06-.03,.07s-.04,.03-.08,.03-.06,0-.08-.03-.02-.06-.02-.13v-.35h-.4v1.23h.26s.07,0,.08,.02,.03,.04,.03,.07,0,.06-.03,.07-.04,.03-.07,.03h-.76s-.06,0-.07-.03-.03-.04-.03-.07c0-.03,0-.06,.03-.07s.05-.02,.09-.02h.25v-1.23h-.39v.35s0,0,0,0Z"/><path class="cls-1" d="M120.69,33.13h-.06s-.06,0-.08-.03-.03-.04-.03-.07c0-.04,.01-.06,.03-.08s.06-.02,.13-.02h.09v-1.23h-.09c-.07,0-.11,0-.13-.02s-.03-.04-.03-.08c0-.03,0-.06,.03-.08s.04-.03,.08-.03h1.19s.05,0,.07,.03,.03,.04,.03,.08v.32s0,.08-.02,.1-.04,.03-.07,.03c-.04,0-.06-.01-.08-.03s-.02-.06-.02-.13v-.2h-.73v.46h.36v-.07c0-.05,0-.08,.02-.1s.04-.03,.07-.03,.05,.01,.07,.03,.02,.06,.02,.13v.25c0,.07,0,.11-.02,.13s-.04,.03-.07,.03-.06-.01-.07-.03-.02-.06-.02-.13v-.05h-.36v.6h.73v-.22c0-.07,0-.11,.02-.13s.04-.03,.08-.03c.03,0,.06,0,.07,.03s.02,.05,.02,.11v.34s0,.06-.03,.08-.04,.03-.07,.03h-1.13Z"/><path class="cls-1" d="M122.63,33.13h-.28s-.06,0-.08-.03-.03-.04-.03-.07c0-.04,.01-.06,.03-.07s.06-.02,.11-.02h.03v-1.23h-.02c-.06,0-.09,0-.11-.02s-.03-.04-.03-.08c0-.03,0-.06,.03-.08s.04-.03,.08-.03h.57c.23,0,.41,.07,.54,.22s.2,.34,.2,.59c0,.12-.02,.23-.06,.34s-.09,.2-.17,.27c-.07,.07-.15,.12-.25,.15s-.22,.05-.38,.05h-.19Zm0-.2s.06,0,.09,0h.08c.22,0,.39-.05,.49-.15s.16-.26,.16-.47-.05-.37-.16-.47-.27-.15-.5-.15h-.1s-.04,0-.06,0v1.23h0Z"/><path class="cls-1" d="M126.28,33.13h-.61s-.06,0-.07-.03-.03-.04-.03-.07c0-.04,.01-.06,.03-.08s.07-.02,.14-.02h.04v-1.23h-.04c-.07,0-.11,0-.13-.02s-.03-.04-.03-.08c0-.03,0-.06,.03-.07s.04-.03,.07-.03h.64c.19,0,.34,.04,.44,.11s.15,.18,.15,.33c0,.07-.02,.13-.05,.19s-.08,.1-.14,.13c.1,.04,.17,.08,.22,.15s.07,.15,.07,.24c0,.08-.02,.16-.06,.23s-.1,.12-.17,.17c-.04,.03-.09,.04-.15,.06s-.13,.02-.23,.02h-.11Zm-.27-.91h.28c.13,0,.22-.02,.29-.06s.09-.1,.09-.19c0-.08-.03-.14-.08-.19s-.14-.06-.24-.06h-.34v.5Zm0,.73h.3c.17,0,.29-.02,.36-.06s.11-.11,.11-.21-.03-.17-.1-.21-.18-.06-.35-.06h-.32v.56Z"/><path class="cls-1" d="M128.27,32.94c.07,0,.11,0,.13,.02s.03,.04,.03,.08-.01,.06-.03,.08-.06,.02-.12,.02h-.65c-.06,0-.1,0-.12-.02s-.03-.04-.03-.08,.01-.06,.03-.08,.07-.02,.13-.02h.2v-.45l-.45-.78h-.02c-.06,0-.09,0-.11-.02s-.03-.04-.03-.08c0-.03,0-.06,.03-.08s.04-.03,.08-.03h.37c.05,0,.09,0,.11,.02s.03,.04,.03,.08-.01,.06-.03,.08-.06,.02-.12,.02h-.04l.33,.59,.34-.59h-.06c-.05,0-.08,0-.1-.02s-.03-.04-.03-.08,0-.06,.03-.08,.06-.02,.12-.02h.25c.07,0,.11,0,.13,.02s.03,.04,.03,.08-.01,.06-.03,.08-.06,.02-.11,.02h-.02l-.46,.8v.43h.2Z"/><path class="cls-1" d="M130.97,32.78l.23-.81s.02-.05,.03-.06,.03-.01,.06-.01h.06s.04,0,.06,.01,.02,.03,.03,.05l.27,.82,.13-1.08h-.21s-.07,0-.09-.02-.03-.04-.03-.07c0-.03,0-.06,.03-.07s.05-.02,.1-.02h.44s.04,0,.05,.03c.01,.02,.02,.04,.02,.07,0,.03,0,.05-.03,.07-.02,.01-.04,.02-.08,.02h-.02l-.19,1.36s0,.05-.02,.06-.02,.01-.04,.01h-.1s-.04,0-.05-.01-.02-.02-.03-.05l-.3-.94-.26,.94s-.01,.04-.03,.04-.03,.01-.05,.01h-.1s-.03,0-.04-.01-.01-.03-.02-.06l-.21-1.36h-.02s-.06,0-.08-.02-.03-.04-.03-.07,0-.05,.02-.07,.03-.03,.05-.03h.44c.05,0,.08,0,.1,.02s.03,.04,.03,.07c0,.03-.01,.06-.03,.07s-.05,.02-.09,.02h-.19l.15,1.08h0Z"/><path class="cls-1" d="M132.41,33.13h-.06s-.06,0-.08-.03-.03-.04-.03-.07c0-.04,.01-.06,.03-.08,.02-.01,.06-.02,.13-.02h.09v-1.23h-.09c-.07,0-.11,0-.13-.02s-.03-.04-.03-.08c0-.03,0-.06,.03-.08s.04-.03,.08-.03h1.19s.05,0,.07,.03,.03,.04,.03,.08v.32s0,.08-.02,.1-.04,.03-.07,.03c-.04,0-.06-.01-.08-.03s-.02-.06-.02-.13v-.2h-.73v.46h.36v-.07c0-.05,0-.08,.02-.1,.01-.02,.04-.03,.07-.03s.05,.01,.07,.03,.02,.06,.02,.13v.25c0,.07,0,.11-.02,.13-.01,.02-.04,.03-.07,.03s-.06-.01-.07-.03-.02-.06-.02-.13v-.05h-.36v.6h.73v-.22c0-.07,0-.11,.02-.13s.04-.03,.08-.03c.03,0,.06,0,.07,.03,.01,.02,.02,.05,.02,.11v.34s0,.06-.03,.08-.04,.03-.07,.03h-1.13Z"/><path class="cls-1" d="M134.37,32.94h.09c.05,0,.09,0,.11,.02s.03,.04,.03,.07c0,.04,0,.06-.03,.08s-.06,.02-.11,.02h-.46s-.06,0-.07-.03-.03-.04-.03-.07c0-.03,0-.06,.03-.07,.02-.01,.05-.02,.09-.02h.12v-1.24h-.08c-.07,0-.11,0-.13-.02s-.03-.04-.03-.07c0-.03,0-.05,.02-.07,.02-.02,.04-.02,.07-.02h.57c.14,0,.24,0,.31,.02s.13,.04,.17,.07c.06,.04,.11,.09,.14,.16,.04,.07,.05,.14,.05,.22,0,.1-.03,.2-.09,.27s-.15,.13-.27,.16c.02,.01,.04,.03,.06,.05s.04,.04,.05,.06l.27,.42h.04c.05,0,.09,0,.11,.02s.03,.04,.03,.07c0,.03,0,.06-.03,.07-.02,.02-.04,.03-.07,.03h-.15s-.09-.03-.13-.1c0,0,0-.01-.01-.01l-.26-.4c-.05-.08-.1-.13-.13-.16-.03-.02-.08-.04-.14-.04h-.18v.51h0Zm0-1.24v.55h.28c.13,0,.22-.02,.29-.07s.09-.11,.09-.2-.03-.16-.09-.21-.16-.07-.28-.07h-.29Z"/><path class="cls-1" d="M137.08,32.32c0,.25-.07,.45-.21,.61-.14,.16-.32,.24-.53,.24s-.39-.08-.53-.24c-.14-.16-.21-.36-.21-.61s.07-.45,.21-.61,.31-.24,.53-.24,.39,.08,.53,.24c.14,.16,.21,.36,.21,.61h0Zm-.74,.66c.15,0,.27-.06,.36-.18s.13-.28,.13-.48-.04-.37-.13-.48c-.09-.12-.21-.18-.36-.18s-.27,.06-.36,.17c-.09,.12-.13,.28-.13,.49s.04,.37,.13,.48c.09,.12,.21,.18,.36,.18Z"/><path class="cls-1" d="M137.65,32.94h.17c.05,0,.08,0,.11,.02,.02,.01,.03,.04,.03,.07,0,.04-.01,.06-.03,.08-.02,.01-.06,.02-.13,.02h-.4s-.06,0-.07-.03-.03-.04-.03-.07c0-.04,0-.06,.03-.08,.02-.01,.06-.02,.11-.02h.03v-1.23h-.03c-.08,0-.13,0-.15-.02-.03-.01-.04-.04-.04-.08,0-.03,.01-.06,.03-.07s.06-.02,.11-.02h.21s.07,0,.09,.01,.04,.03,.06,.07l.69,1.19v-1.08h-.15c-.05,0-.08,0-.11-.03-.02-.02-.03-.04-.03-.08,0-.04,0-.06,.03-.08s.06-.02,.12-.02h.39s.06,0,.07,.03,.03,.04,.03,.07c0,.04-.01,.06-.03,.08-.02,.01-.06,.02-.11,.02h-.02v1.37s0,.04-.02,.06-.04,.01-.08,.01-.07,0-.08,0c-.01,0-.03-.03-.05-.07l-.73-1.25v1.11h0Z"/><path class="cls-1" d="M140.11,32.94c.07,0,.11,0,.13,.02s.03,.04,.03,.08-.01,.06-.03,.08c-.02,.01-.06,.02-.13,.02h-.89s-.06,0-.08-.03-.03-.04-.03-.07c0-.04,.01-.06,.03-.08,.02-.01,.06-.02,.13-.02h.31v-1.23h-.31c-.07,0-.11,0-.13-.02-.02-.01-.03-.04-.03-.08,0-.03,0-.06,.03-.08s.04-.03,.08-.03h.95s.06,0,.08,.03,.03,.04,.03,.07c0,.04-.01,.06-.03,.08s-.06,.02-.13,.02h-.31v1.23h.31Z"/><path class="cls-1" d="M141.09,32.94h.09c.05,0,.09,0,.11,.02s.03,.04,.03,.07c0,.04,0,.06-.03,.08s-.06,.02-.11,.02h-.47s-.05,0-.07-.03-.02-.04-.02-.07c0-.03,0-.06,.03-.07s.05-.02,.09-.02h.13v-1.23h-.09c-.07,0-.11,0-.13-.02s-.03-.04-.03-.08c0-.03,0-.06,.02-.07,.02-.02,.04-.03,.07-.03h.47c.05,0,.09,0,.11,.02s.03,.04,.03,.08-.01,.06-.04,.08-.07,.02-.14,.02h-.06v.56l.57-.56h-.05s-.08,0-.1-.02c-.02-.02-.03-.04-.03-.08s0-.06,.02-.08,.04-.02,.08-.02h.4s.06,0,.07,.03,.03,.04,.03,.07c0,.04-.01,.06-.03,.08s-.06,.02-.11,.02h-.02l-.53,.51c.08,.02,.16,.07,.23,.15s.19,.27,.34,.57h.03c.06,0,.09,0,.11,.02s.03,.04,.03,.07c0,.03,0,.06-.03,.07-.02,.02-.04,.03-.07,.03h-.13s-.05,0-.06,0c-.01,0-.03-.02-.04-.04,0-.01-.06-.11-.15-.28l-.05-.1c-.06-.11-.11-.19-.17-.24s-.12-.08-.18-.09l-.15,.14v.43h0Z"/><path class="cls-1" d="M142.83,31.71h-.2c-.06,0-.09,0-.12-.02-.02-.01-.03-.04-.03-.08s.01-.06,.03-.08c.02-.01,.07-.02,.16-.02h.39c.05,0,.08,0,.1,.02s.03,.04,.05,.07l.53,1.33h.02c.05,0,.08,0,.1,.02s.03,.04,.03,.07c0,.04,0,.06-.03,.08-.02,.01-.05,.02-.1,.02h-.37c-.07,0-.11,0-.13-.02s-.03-.04-.03-.08c0-.03,.01-.06,.03-.07,.02-.01,.06-.02,.12-.02h.13l-.13-.32h-.69l-.12,.32h.13c.06,0,.1,0,.12,.02s.03,.04,.03,.07c0,.04-.01,.06-.03,.08-.02,.01-.06,.02-.13,.02h-.36c-.06,0-.1,0-.12-.02s-.03-.04-.03-.08,0-.06,.03-.07,.06-.02,.11-.02h.03l.46-1.23h0Zm-.07,.73h.56l-.29-.72-.27,.72Z"/><path class="cls-1" d="M147.13,32.32c0,.25-.07,.45-.21,.61-.14,.16-.32,.24-.53,.24s-.39-.08-.53-.24c-.14-.16-.21-.36-.21-.61s.07-.45,.21-.61,.31-.24,.53-.24,.39,.08,.53,.24c.14,.16,.21,.36,.21,.61h0Zm-.74,.66c.15,0,.27-.06,.36-.18s.13-.28,.13-.48-.04-.37-.13-.48c-.09-.12-.21-.18-.36-.18s-.27,.06-.36,.17c-.09,.12-.13,.28-.13,.49s.04,.37,.13,.48c.09,.12,.21,.18,.36,.18Z"/><path class="cls-1" d="M147.71,32.78l.23-.81s.02-.05,.03-.06c.01,0,.03-.01,.06-.01h.06s.04,0,.06,.01c.01,0,.02,.03,.03,.05l.27,.82,.13-1.08h-.21s-.07,0-.09-.02c-.02-.01-.03-.04-.03-.07,0-.03,0-.06,.03-.07s.05-.02,.1-.02h.44s.04,0,.05,.03c.01,.02,.02,.04,.02,.07,0,.03,0,.05-.03,.07-.02,.01-.04,.02-.08,.02h-.02l-.19,1.36s0,.05-.02,.06-.02,.01-.04,.01h-.1s-.04,0-.05-.01-.02-.02-.03-.05l-.3-.94-.26,.94s-.01,.04-.03,.04c-.01,0-.03,.01-.05,.01h-.1s-.03,0-.04-.01c0,0-.01-.03-.02-.06l-.21-1.36h-.02s-.06,0-.08-.02-.03-.04-.03-.07,0-.05,.02-.07,.03-.03,.05-.03h.44c.05,0,.08,0,.1,.02s.03,.04,.03,.07c0,.03-.01,.06-.03,.07-.02,.01-.05,.02-.09,.02h-.19l.15,1.08h0Z"/><path class="cls-1" d="M150.17,31.56s.02-.04,.04-.05,.04-.01,.07-.01c.03,0,.06,0,.07,.03s.02,.05,.02,.1v.25c0,.08,0,.11,0,.1,0,.04,0,.07-.02,.09-.01,.01-.04,.02-.08,.02-.06,0-.1-.04-.12-.13,0-.03-.01-.04-.01-.06-.02-.07-.06-.12-.12-.17s-.14-.06-.23-.06c-.16,0-.29,.06-.39,.18-.1,.12-.15,.28-.15,.47s.05,.35,.15,.47c.1,.12,.23,.18,.39,.18,.05,0,.11,0,.16-.02s.11-.04,.16-.07c.03-.01,.06-.03,.1-.06s.07-.04,.09-.04c.03,0,.05,0,.07,.03s.03,.04,.03,.07-.01,.05-.03,.08-.06,.06-.12,.09c-.08,.05-.15,.09-.23,.11-.08,.03-.16,.04-.24,.04-.22,0-.41-.08-.56-.24s-.22-.36-.22-.61,.07-.45,.22-.61c.15-.16,.33-.24,.56-.24,.06,0,.12,0,.18,.02,.06,.01,.13,.04,.2,.06h0Z"/><path class="cls-1" d="M151.1,31.71v.28s-.01,.02-.01,.03v.03s0,.06-.03,.07c-.02,.01-.04,.02-.08,.02s-.06,0-.07-.03-.02-.05-.02-.09v-.05l.02-.38s.01-.06,.03-.07c.02-.02,.04-.02,.08-.02h.78c.05,0,.09,.01,.12,.03s.04,.05,.04,.09c0,.02,0,.04-.01,.06,0,.02-.02,.05-.04,.07l-.8,1.17h.63l.02-.32h0c0-.11,.04-.16,.1-.16,.03,0,.06,0,.07,.03,.01,.02,.02,.05,.02,.09v.05l-.02,.41s0,.06-.03,.07-.04,.02-.08,.02h-.86s-.07-.01-.09-.03-.04-.05-.04-.09c0-.02,0-.04,.02-.07s.03-.06,.05-.09l.78-1.14h-.58Z"/><path class="cls-1" d="M152.88,31.71h-.2c-.06,0-.09,0-.12-.02-.02-.01-.03-.04-.03-.08s.01-.06,.03-.08c.02-.01,.07-.02,.16-.02h.39c.05,0,.08,0,.1,.02s.03,.04,.05,.07l.53,1.33h.02c.05,0,.08,0,.1,.02s.03,.04,.03,.07c0,.04,0,.06-.03,.08-.02,.01-.05,.02-.1,.02h-.37c-.07,0-.11,0-.13-.02s-.03-.04-.03-.08c0-.03,.01-.06,.03-.07,.02-.01,.06-.02,.12-.02h.13l-.13-.32h-.69l-.12,.32h.13c.06,0,.1,0,.12,.02s.03,.04,.03,.07c0,.04-.01,.06-.03,.08-.02,.01-.06,.02-.13,.02h-.36c-.06,0-.1,0-.12-.02s-.03-.04-.03-.08,0-.06,.03-.07,.06-.02,.11-.02h.03l.46-1.23h0Zm-.07,.73h.56l-.29-.72-.27,.72Z"/><path class="cls-1" d="M154.46,32.94h.09c.05,0,.09,0,.11,.02s.03,.04,.03,.07c0,.04,0,.06-.03,.08s-.06,.02-.11,.02h-.46s-.06,0-.07-.03-.03-.04-.03-.07c0-.03,0-.06,.03-.07,.02-.01,.05-.02,.09-.02h.12v-1.24h-.08c-.07,0-.11,0-.13-.02s-.03-.04-.03-.07c0-.03,0-.05,.02-.07,.02-.02,.04-.02,.07-.02h.57c.14,0,.24,0,.31,.02s.13,.04,.17,.07c.06,.04,.11,.09,.14,.16,.04,.07,.05,.14,.05,.22,0,.1-.03,.2-.09,.27s-.15,.13-.27,.16c.02,.01,.04,.03,.06,.05s.04,.04,.05,.06l.27,.42h.04c.05,0,.09,0,.11,.02s.03,.04,.03,.07c0,.03,0,.06-.03,.07-.02,.02-.04,.03-.07,.03h-.15s-.09-.03-.13-.1c0,0,0-.01-.01-.01l-.26-.4c-.05-.08-.1-.13-.13-.16-.03-.02-.08-.04-.14-.04h-.18v.51h0Zm0-1.24v.55h.28c.13,0,.22-.02,.29-.07s.09-.11,.09-.2-.03-.16-.09-.21-.16-.07-.28-.07h-.29Z"/><path class="cls-1" d="M156.12,31.71v.28s-.01,.02-.01,.03v.03s0,.06-.03,.07c-.02,.01-.04,.02-.08,.02s-.06,0-.07-.03-.02-.05-.02-.09v-.05l.02-.38s.01-.06,.03-.07c.02-.02,.04-.02,.08-.02h.78c.05,0,.09,.01,.12,.03s.04,.05,.04,.09c0,.02,0,.04-.01,.06,0,.02-.02,.05-.04,.07l-.8,1.17h.63l.02-.32h0c0-.11,.04-.16,.1-.16,.03,0,.06,0,.07,.03,.01,.02,.02,.05,.02,.09v.05l-.02,.41s0,.06-.03,.07-.04,.02-.08,.02h-.86s-.07-.01-.09-.03-.04-.05-.04-.09c0-.02,0-.04,.02-.07s.03-.06,.05-.09l.78-1.14h-.58Z"/></g></g><line class="cls-3" x1="6.44" y1=".5" x2="564.66" y2=".5"/><g><g><path d="M320.33,21.15c.03-.09,.08-.15,.14-.19s.14-.05,.25-.05c.12,0,.21,.03,.25,.09s.07,.18,.07,.36c0,.32,0,.62,0,.89,0,.28,0,.4,0,.36,0,.15-.03,.26-.08,.31-.05,.05-.15,.08-.28,.08-.21,0-.36-.15-.42-.46-.02-.09-.04-.16-.05-.21-.06-.24-.21-.44-.44-.6-.23-.16-.51-.23-.83-.23-.58,0-1.04,.21-1.39,.63-.35,.42-.52,.99-.52,1.7s.18,1.27,.53,1.69c.35,.42,.82,.63,1.4,.63,.19,0,.38-.03,.58-.08,.2-.05,.39-.13,.58-.24,.09-.05,.21-.12,.36-.23,.15-.11,.26-.16,.33-.16,.1,0,.19,.03,.26,.1,.07,.07,.11,.15,.11,.25s-.04,.19-.12,.28c-.08,.09-.22,.2-.43,.33-.27,.18-.55,.31-.83,.4-.28,.08-.57,.13-.87,.13-.8,0-1.47-.28-1.99-.85-.52-.57-.79-1.29-.79-2.18s.26-1.6,.8-2.18c.53-.58,1.2-.87,2-.87,.21,0,.43,.03,.66,.08,.22,.05,.46,.13,.71,.23Z"/><path d="M327.35,24.53c0,.7-.24,1.27-.71,1.71-.48,.44-1.09,.66-1.85,.66s-1.37-.22-1.85-.66c-.48-.44-.71-1.01-.71-1.71s.24-1.27,.71-1.71c.47-.44,1.09-.66,1.85-.66s1.37,.22,1.85,.66c.48,.44,.72,1.01,.72,1.7Zm-2.56,1.68c.5,0,.91-.16,1.23-.48,.32-.32,.48-.72,.48-1.21s-.16-.9-.48-1.22-.73-.48-1.23-.48-.91,.16-1.23,.48c-.32,.32-.48,.73-.48,1.22s.16,.9,.48,1.21c.32,.32,.73,.47,1.23,.47Z"/><path d="M329.53,28.03h1.17c.12,0,.22,.03,.28,.09,.06,.06,.09,.15,.09,.26,0,.13-.03,.22-.09,.27-.06,.05-.17,.08-.32,.08h-2.15c-.13,0-.23-.03-.3-.09-.07-.06-.1-.14-.1-.26,0-.13,.04-.22,.12-.27s.24-.08,.46-.08h.09v-5.07h-.09c-.22,0-.38-.03-.46-.08s-.12-.14-.12-.27c0-.11,.03-.2,.1-.26,.07-.06,.17-.09,.3-.09h.74c.1,0,.17,.02,.21,.05s.07,.08,.07,.15v.47c.22-.23,.47-.4,.73-.51s.56-.17,.87-.17c.65,0,1.2,.22,1.64,.66s.66,1,.66,1.67-.21,1.17-.62,1.58c-.42,.41-.95,.62-1.6,.62-.35,0-.66-.06-.95-.18-.29-.12-.53-.3-.73-.52v1.95Zm1.51-1.96c.45,0,.82-.14,1.11-.43,.29-.29,.43-.65,.43-1.11s-.15-.81-.44-1.1c-.29-.29-.66-.43-1.11-.43s-.82,.14-1.1,.43c-.29,.29-.43,.65-.43,1.1s.14,.82,.43,1.1c.29,.29,.65,.43,1.11,.43Z"/><path d="M336.43,28.03h.21c.24,0,.4,.03,.48,.08,.08,.05,.13,.14,.13,.28,0,.11-.03,.2-.1,.26-.07,.06-.16,.09-.29,.09h-2.25c-.15,0-.26-.03-.32-.08-.06-.05-.09-.14-.09-.27,0-.12,.03-.21,.09-.26s.16-.09,.29-.09h1.06l.79-1.56-1.79-3.51c-.21,0-.36-.03-.44-.08-.08-.05-.12-.14-.12-.27,0-.11,.03-.2,.1-.25,.06-.06,.16-.08,.29-.08h1.36c.18,0,.3,.03,.37,.08,.06,.05,.09,.14,.09,.26s-.04,.22-.12,.27c-.08,.05-.23,.08-.45,.08h-.18l1.32,2.7,1.35-2.7h-.19c-.22,0-.38-.03-.46-.08-.08-.05-.13-.14-.13-.27s.03-.21,.09-.26c.06-.05,.19-.08,.37-.08h1.21c.13,0,.23,.03,.29,.08s.1,.14,.1,.25c0,.12-.04,.21-.11,.26-.07,.05-.2,.08-.38,.09l-2.57,5.07Z"/><path d="M342.32,26.09h1.62c.13,0,.22,.03,.28,.08,.06,.05,.09,.14,.09,.26,0,.13-.03,.23-.09,.28-.06,.05-.16,.08-.31,.08h-3.19c-.13,0-.22-.03-.29-.09-.07-.06-.1-.15-.1-.26s.03-.2,.1-.25c.07-.06,.17-.08,.31-.08h.85v-3.13h-.33c-.32,0-.51-.03-.59-.08s-.12-.14-.12-.27c0-.11,.03-.2,.09-.25s.16-.08,.29-.08h1.11c.09,0,.15,.02,.2,.05,.04,.04,.07,.08,.07,.15v.83c.31-.39,.63-.68,.97-.86,.33-.19,.7-.28,1.08-.28,.29,0,.52,.06,.7,.17,.18,.12,.27,.27,.27,.45,0,.12-.04,.23-.13,.32-.09,.09-.19,.14-.29,.14-.08,0-.2-.05-.38-.15-.18-.1-.34-.15-.48-.15-.25,0-.52,.09-.8,.27-.28,.18-.59,.47-.93,.86v2.02Z"/><path d="M349.25,26.09h1.57c.13,0,.22,.03,.28,.08,.06,.05,.09,.14,.09,.26,0,.13-.03,.23-.09,.28-.06,.05-.16,.08-.31,.08h-3.78c-.13,0-.23-.03-.29-.09-.07-.06-.1-.15-.1-.26s.03-.2,.1-.25,.17-.08,.31-.08h1.49v-3.13h-.96c-.13,0-.24-.03-.31-.09s-.11-.15-.11-.26,.03-.2,.1-.25c.06-.06,.16-.08,.29-.08h1.43c.09,0,.16,.02,.21,.05,.05,.04,.08,.08,.08,.15v3.62Zm-.9-5.23c0-.35,.03-.57,.09-.66s.2-.14,.41-.14,.33,.04,.4,.11c.06,.08,.1,.26,.1,.54s-.03,.45-.09,.52c-.06,.07-.2,.1-.41,.1s-.34-.03-.41-.09-.09-.19-.09-.39Z"/><path d="M356.78,26.52c0,.46-.02,.78-.07,.97-.05,.19-.12,.36-.24,.5-.18,.24-.44,.42-.77,.55-.33,.13-.72,.19-1.16,.19-.37,0-.64-.04-.81-.11s-.26-.19-.26-.34c0-.1,.04-.19,.12-.27,.08-.08,.18-.11,.3-.11,.09,0,.22,.01,.41,.04,.18,.03,.32,.04,.42,.04,.48,0,.82-.11,1.03-.33,.2-.22,.3-.6,.3-1.14v-.59c-.2,.23-.42,.4-.66,.51-.24,.11-.52,.16-.83,.16-.61,0-1.11-.2-1.51-.61-.4-.4-.6-.92-.6-1.54s.21-1.14,.62-1.56c.41-.41,.92-.62,1.52-.62,.25,0,.5,.05,.73,.14,.24,.09,.48,.23,.73,.42v-.35c0-.07,.02-.12,.07-.15s.11-.05,.21-.05h.74c.13,0,.23,.03,.29,.09,.06,.06,.1,.14,.1,.26,0,.13-.04,.22-.12,.27-.08,.05-.23,.08-.46,.08h-.09v3.56Zm-2.12-3.53c-.43,0-.78,.13-1.04,.4-.27,.26-.41,.61-.41,1.03s.13,.75,.41,1.02c.27,.26,.62,.4,1.04,.4s.77-.13,1.04-.4c.27-.27,.41-.61,.41-1.02s-.14-.75-.41-1.02c-.27-.27-.62-.4-1.04-.4Z"/><path d="M358.96,26.09v-5h-.09c-.22,0-.37-.03-.46-.08s-.12-.14-.12-.27c0-.12,.03-.21,.1-.26,.07-.06,.16-.09,.29-.09h.74c.09,0,.16,.02,.21,.05s.07,.08,.07,.15v2.21c.24-.22,.47-.38,.71-.49,.23-.11,.47-.16,.73-.16,.49,0,.88,.15,1.16,.46,.28,.31,.42,.73,.42,1.27v2.21h.23c.16,0,.28,.03,.35,.08,.07,.05,.11,.14,.11,.26s-.03,.21-.1,.26c-.07,.06-.16,.09-.29,.09h-1.3c-.15,0-.26-.03-.31-.08-.05-.05-.08-.14-.08-.28s.03-.22,.1-.27c.07-.05,.19-.07,.38-.07h.17v-2.03c0-.38-.09-.67-.26-.87-.17-.2-.42-.3-.75-.3s-.63,.11-.88,.34-.38,.5-.38,.83v2.03h.17c.2,0,.33,.02,.4,.07s.1,.14,.1,.26c0,.13-.03,.23-.08,.28-.05,.05-.16,.08-.31,.08h-1.3c-.13,0-.22-.03-.29-.09s-.09-.15-.09-.26c0-.13,.04-.22,.11-.27,.08-.05,.23-.07,.45-.07h.1Z"/><path d="M368.13,22.54c.16,0,.28,.03,.35,.08s.11,.14,.11,.26-.03,.2-.1,.26c-.07,.06-.17,.08-.31,.08h-1.98v1.63c0,.53,.07,.89,.21,1.05,.14,.17,.38,.25,.71,.25,.3,0,.65-.09,1.06-.26,.41-.17,.67-.26,.77-.26,.09,0,.17,.03,.23,.1s.1,.14,.1,.24c0,.11-.04,.2-.12,.28s-.22,.16-.41,.23c-.32,.13-.61,.22-.86,.28-.25,.06-.5,.09-.72,.09-.38,0-.7-.06-.96-.18-.26-.12-.45-.3-.58-.54-.07-.11-.11-.25-.14-.41-.03-.16-.04-.4-.04-.72v-1.78h-.83c-.14,0-.24-.03-.3-.08-.06-.05-.09-.14-.09-.26,0-.13,.04-.22,.13-.27,.08-.05,.26-.07,.54-.07h.55v-1.26c0-.14,.03-.24,.09-.31,.06-.07,.15-.1,.28-.1,.14,0,.24,.04,.3,.12,.05,.08,.08,.27,.08,.56v.99h1.93Z"/><path d="M370.67,26.43v-.87c0-.14,.03-.25,.08-.31s.14-.09,.26-.09c.13,0,.24,.09,.32,.27,.05,.11,.1,.19,.14,.25,.14,.18,.34,.32,.61,.42,.27,.11,.56,.16,.88,.16,.34,0,.62-.07,.83-.21,.21-.14,.31-.32,.31-.55s-.08-.4-.25-.49c-.17-.1-.46-.15-.86-.15h-.27c-.66,0-1.17-.12-1.52-.35-.35-.23-.52-.57-.52-1.01s.17-.76,.51-1c.34-.24,.82-.36,1.43-.36,.25,0,.51,.04,.77,.11,.26,.07,.4,.1,.41,.1,.04,0,.1-.03,.21-.09,.1-.06,.2-.1,.3-.1,.11,0,.19,.04,.25,.12s.08,.2,.08,.37v.57c0,.17-.03,.3-.08,.37-.05,.08-.14,.11-.25,.11-.1,0-.22-.08-.36-.25-.1-.11-.18-.2-.25-.26-.17-.16-.36-.27-.55-.34-.2-.07-.42-.1-.69-.1-.31,0-.55,.07-.74,.2-.19,.14-.28,.31-.28,.52s.1,.35,.29,.44c.19,.09,.61,.14,1.24,.15,.68,.02,1.17,.13,1.48,.35,.31,.22,.47,.56,.47,1.02s-.17,.79-.52,1.05c-.35,.26-.81,.4-1.4,.4-.19,0-.39-.02-.62-.05-.23-.03-.51-.09-.86-.17-.11,.08-.21,.13-.29,.17-.08,.04-.15,.06-.21,.06-.11,0-.2-.04-.26-.12-.06-.08-.09-.19-.09-.34Z"/></g><g><circle cx="390.17" cy="23.47" r="10.28"/><path class="cls-2" d="M392.46,26.82c-.38,.19-1.15,.38-2.13,.38-2.28,0-3.99-1.44-3.99-4.09s1.71-4.25,4.22-4.25c1.01,0,1.64,.22,1.92,.36l-.25,.85c-.4-.19-.96-.34-1.63-.34-1.9,0-3.15,1.21-3.15,3.33,0,1.98,1.14,3.25,3.11,3.25,.64,0,1.28-.13,1.7-.34l.22,.83Z"/></g><g><path d="M403.77,27.45c-.17,0-.3-.04-.38-.11-.08-.07-.12-.18-.12-.32,0-.21,.31-.61,.94-1.19l.14-.14c.09-.09,.23-.22,.41-.39,1.13-1.06,1.69-1.83,1.69-2.32,0-.35-.1-.63-.3-.85s-.46-.32-.77-.32c-.21,0-.4,.04-.59,.13-.19,.08-.34,.2-.45,.34-.02,.03-.05,.07-.09,.13-.12,.22-.26,.33-.41,.33-.12,0-.2-.04-.25-.11s-.07-.21-.07-.41c0-.12,.01-.2,.03-.26s.07-.11,.13-.17c.21-.2,.47-.36,.77-.48,.31-.12,.62-.18,.95-.18,.54,0,.99,.17,1.36,.52,.36,.35,.54,.78,.54,1.29,0,.64-.55,1.49-1.66,2.55-.28,.26-.5,.47-.65,.62l-.6,.58h2.23c.01-.14,.05-.25,.12-.32,.06-.07,.15-.11,.26-.11s.19,.04,.25,.11,.09,.17,.09,.29c0,0,0,.03,0,.05,0,.03,0,.04,0,.05l-.04,.38c0,.1-.04,.18-.09,.24-.05,.06-.11,.09-.19,.09h-3.23Z"/><path d="M411.47,27.61c-.61,0-1.1-.29-1.46-.87-.36-.58-.54-1.37-.54-2.38s.18-1.79,.54-2.37c.36-.58,.84-.87,1.46-.87s1.1,.29,1.46,.87,.54,1.37,.54,2.37-.18,1.79-.54,2.37c-.36,.58-.85,.87-1.46,.87Zm0-5.78c-.37,0-.67,.22-.87,.66-.21,.44-.31,1.07-.31,1.88s.1,1.44,.31,1.88c.21,.44,.5,.67,.87,.67s.67-.22,.88-.67c.21-.45,.31-1.07,.31-1.88s-.1-1.43-.31-1.88c-.21-.44-.5-.66-.88-.66Z"/><path d="M415.77,27.45c-.17,0-.3-.04-.38-.11-.08-.07-.12-.18-.12-.32,0-.21,.31-.61,.94-1.19l.14-.14c.09-.09,.23-.22,.41-.39,1.13-1.06,1.69-1.83,1.69-2.32,0-.35-.1-.63-.3-.85s-.46-.32-.77-.32c-.21,0-.4,.04-.59,.13-.19,.08-.34,.2-.45,.34-.02,.03-.05,.07-.09,.13-.12,.22-.26,.33-.41,.33-.12,0-.2-.04-.25-.11s-.07-.21-.07-.41c0-.12,.01-.2,.03-.26s.07-.11,.13-.17c.21-.2,.47-.36,.77-.48,.31-.12,.62-.18,.95-.18,.54,0,.99,.17,1.36,.52,.36,.35,.54,.78,.54,1.29,0,.64-.55,1.49-1.66,2.55-.28,.26-.5,.47-.65,.62l-.6,.58h2.23c.01-.14,.05-.25,.12-.32,.06-.07,.15-.11,.26-.11s.19,.04,.25,.11,.09,.17,.09,.29c0,0,0,.03,0,.05,0,.03,0,.04,0,.05l-.04,.38c0,.1-.04,.18-.09,.24-.05,.06-.11,.09-.19,.09h-3.23Z"/><path d="M421.77,27.45c-.17,0-.3-.04-.38-.11-.08-.07-.12-.18-.12-.32,0-.21,.31-.61,.94-1.19l.14-.14c.09-.09,.23-.22,.41-.39,1.13-1.06,1.69-1.83,1.69-2.32,0-.35-.1-.63-.3-.85s-.46-.32-.77-.32c-.21,0-.4,.04-.59,.13-.19,.08-.34,.2-.45,.34-.02,.03-.05,.07-.09,.13-.12,.22-.26,.33-.41,.33-.12,0-.2-.04-.25-.11s-.07-.21-.07-.41c0-.12,.01-.2,.03-.26s.07-.11,.13-.17c.21-.2,.47-.36,.77-.48,.31-.12,.62-.18,.95-.18,.54,0,.99,.17,1.36,.52,.36,.35,.54,.78,.54,1.29,0,.64-.55,1.49-1.66,2.55-.28,.26-.5,.47-.65,.62l-.6,.58h2.23c.01-.14,.05-.25,.12-.32,.06-.07,.15-.11,.26-.11s.19,.04,.25,.11,.09,.17,.09,.29c0,0,0,.03,0,.05,0,.03,0,.04,0,.05l-.04,.38c0,.1-.04,.18-.09,.24-.05,.06-.11,.09-.19,.09h-3.23Z"/><path d="M443.29,24.73c0-.46-.04-.77-.12-.93-.08-.16-.22-.24-.43-.24-.24,0-.43,.1-.57,.31-.14,.21-.21,.49-.21,.86v2.03h.09c.2,0,.33,.02,.39,.07,.07,.05,.1,.14,.1,.27,0,.12-.03,.21-.08,.26s-.14,.09-.25,.09h-.62c-.14,0-.24-.03-.29-.1-.05-.07-.08-.21-.08-.42v-2.58c0-.24-.06-.44-.17-.58-.11-.14-.26-.21-.45-.21-.15,0-.28,.04-.4,.13-.12,.09-.23,.21-.32,.38v2.69h.18c.19,0,.32,.02,.39,.07,.07,.05,.1,.14,.1,.26,0,.13-.03,.23-.08,.28-.05,.05-.16,.08-.32,.08h-1.3c-.13,0-.22-.03-.28-.09-.06-.06-.09-.15-.09-.27,0-.13,.04-.22,.11-.27,.08-.05,.22-.07,.44-.07h.1v-3.13h-.09c-.23,0-.38-.03-.46-.08-.08-.05-.12-.14-.12-.27,0-.11,.03-.2,.1-.25s.16-.08,.29-.08h.75c.11,0,.18,.02,.21,.06,.04,.04,.05,.12,.06,.24,.13-.14,.28-.25,.43-.32s.33-.1,.52-.1c.23,0,.42,.05,.56,.15s.26,.25,.33,.45c.14-.2,.29-.35,.47-.45,.18-.1,.38-.15,.62-.15,.42,0,.73,.14,.92,.41,.19,.27,.29,.72,.29,1.33v2.21h.08c.2,0,.33,.02,.4,.07,.07,.05,.1,.14,.1,.26,0,.12-.03,.21-.09,.26s-.14,.09-.26,.09h-.59c-.13,0-.23-.04-.29-.12s-.09-.2-.09-.37v-2.23Z"/><path d="M447.11,28.7h.21c.24,0,.4,.03,.48,.08,.08,.05,.13,.14,.13,.28,0,.11-.03,.2-.1,.26-.07,.06-.16,.09-.29,.09h-2.25c-.15,0-.26-.03-.32-.08-.06-.05-.09-.14-.09-.27,0-.12,.03-.21,.1-.26,.06-.06,.16-.09,.29-.09h1.06l.79-1.56-1.79-3.51c-.21,0-.36-.03-.44-.08-.08-.05-.12-.14-.12-.27,0-.11,.03-.2,.1-.25s.16-.08,.29-.08h1.36c.18,0,.3,.02,.37,.08s.09,.14,.09,.26-.04,.22-.12,.27-.23,.08-.45,.08h-.18l1.32,2.7,1.35-2.7h-.19c-.22,0-.38-.03-.46-.08s-.13-.14-.13-.27,.03-.21,.09-.26,.19-.08,.37-.08h1.21c.13,0,.23,.03,.3,.08,.06,.06,.09,.14,.09,.25,0,.12-.04,.21-.11,.26s-.2,.08-.38,.09l-2.57,5.07Z"/><path d="M453.15,21.76h-.83c-.32,0-.51-.03-.59-.08-.08-.05-.12-.14-.12-.28,0-.12,.03-.21,.1-.26,.07-.06,.16-.09,.29-.09h1.61c.09,0,.16,.02,.21,.05s.07,.08,.07,.15v5.5h1.53c.12,0,.21,.03,.27,.08,.06,.05,.08,.14,.08,.26,0,.13-.03,.23-.08,.28-.06,.05-.16,.08-.31,.08h-3.6c-.13,0-.22-.03-.29-.09-.07-.06-.1-.15-.1-.26s.03-.2,.1-.25,.17-.08,.31-.08h1.35v-5Z"/><path d="M459.93,26.76h1.57c.13,0,.22,.03,.28,.08,.06,.05,.09,.14,.09,.26,0,.13-.03,.23-.09,.28-.06,.05-.16,.08-.31,.08h-3.78c-.13,0-.23-.03-.29-.09s-.1-.15-.1-.26,.03-.2,.1-.25,.17-.08,.31-.08h1.49v-3.13h-.96c-.13,0-.24-.03-.31-.09-.07-.06-.11-.15-.11-.26s.03-.2,.1-.25,.16-.08,.29-.08h1.43c.09,0,.16,.02,.21,.05,.05,.04,.08,.08,.08,.15v3.62Zm-.9-5.23c0-.35,.03-.57,.1-.66,.06-.09,.2-.14,.41-.14s.33,.04,.4,.11,.1,.26,.1,.54-.03,.45-.09,.52c-.06,.07-.2,.1-.41,.1s-.34-.03-.41-.09c-.06-.06-.1-.19-.1-.39Z"/><path d="M466.98,26.75c.13,0,.24,.03,.3,.09,.07,.06,.11,.14,.11,.26s-.03,.21-.1,.26c-.07,.06-.16,.09-.29,.09h-3.19c-.13,0-.24-.03-.3-.09-.07-.06-.11-.15-.11-.26s.03-.2,.1-.26c.07-.06,.16-.09,.29-.09h.83v-2.98h-.8c-.13,0-.24-.03-.31-.09-.07-.06-.11-.15-.11-.26s.03-.21,.1-.26,.17-.09,.3-.09h.77v-.33c0-.59,.17-1.02,.5-1.28s.88-.4,1.63-.4c.36,0,.63,.04,.81,.12,.17,.08,.26,.21,.26,.38,0,.1-.04,.18-.11,.25s-.17,.1-.29,.1c-.06,0-.2-.02-.42-.06-.22-.04-.41-.06-.57-.06-.37,0-.63,.08-.79,.23s-.24,.41-.24,.77v.28h1.73c.13,0,.24,.03,.3,.09,.07,.06,.11,.15,.11,.26,0,.11-.04,.2-.11,.26-.07,.06-.17,.1-.29,.1h-1.69v2.98h1.59Z"/><path d="M469.83,25.41c.03,.47,.18,.83,.48,1.09,.29,.26,.69,.38,1.19,.38,.38,0,.8-.1,1.25-.3,.45-.2,.72-.31,.82-.31s.18,.03,.24,.09,.1,.14,.1,.23-.03,.18-.1,.26-.18,.15-.33,.23c-.33,.16-.66,.28-1.01,.36-.35,.08-.69,.13-1.03,.13-.74,0-1.34-.21-1.78-.64-.45-.43-.67-1-.67-1.7s.24-1.3,.71-1.75c.47-.45,1.09-.67,1.85-.67,.69,0,1.26,.21,1.71,.62,.45,.42,.68,.92,.68,1.51,0,.18-.04,.3-.12,.37-.08,.06-.28,.09-.62,.09h-3.35Zm.02-.64h3.18c-.05-.39-.21-.7-.49-.94-.27-.24-.61-.35-1.01-.35-.43,0-.8,.11-1.09,.34-.3,.23-.49,.54-.59,.95Z"/><path d="M478.6,26.83c-.27,.24-.56,.42-.87,.55-.31,.13-.64,.19-.97,.19-.49,0-.88-.13-1.17-.41-.3-.27-.45-.62-.45-1.05,0-.51,.2-.91,.59-1.2,.4-.28,.95-.42,1.67-.42,.19,0,.38,.01,.57,.04,.19,.02,.39,.06,.59,.11v-.03c0-.37-.09-.65-.27-.83-.18-.18-.46-.27-.83-.27-.25,0-.54,.07-.85,.21s-.52,.21-.62,.21c-.09,0-.17-.04-.23-.12-.06-.08-.09-.17-.09-.29,0-.19,.18-.35,.54-.49,.36-.13,.82-.2,1.38-.2s1.01,.15,1.3,.44,.44,.72,.44,1.29v2.21h.24c.23,0,.39,.02,.46,.07s.12,.14,.12,.26c0,.12-.03,.21-.1,.26s-.16,.09-.29,.09h-.77c-.09,0-.17-.03-.22-.08s-.1-.13-.12-.24l-.04-.3Zm-.04-1.54c-.18-.06-.35-.1-.52-.13-.17-.03-.33-.04-.5-.04-.5,0-.9,.08-1.19,.25s-.43,.4-.43,.68c0,.22,.09,.4,.27,.55,.18,.14,.41,.21,.69,.21,.41,0,.8-.11,1.15-.33,.35-.22,.53-.44,.53-.68v-.53Z"/><path d="M481.35,27.1v-.87c0-.14,.03-.25,.08-.31,.05-.06,.14-.09,.26-.09,.13,0,.24,.09,.32,.27,.05,.11,.1,.19,.14,.25,.14,.18,.34,.32,.61,.42,.27,.11,.56,.16,.88,.16,.34,0,.62-.07,.83-.21s.31-.32,.31-.55-.08-.4-.25-.49c-.17-.1-.46-.15-.86-.15h-.27c-.66,0-1.17-.12-1.52-.35s-.52-.57-.52-1.01,.17-.76,.51-1c.34-.24,.82-.36,1.43-.36,.25,0,.51,.04,.77,.1s.4,.1,.41,.1c.04,0,.1-.03,.21-.1s.2-.1,.3-.1c.11,0,.19,.04,.25,.12,.05,.08,.08,.2,.08,.37v.57c0,.17-.03,.3-.08,.37-.05,.08-.13,.12-.25,.12-.1,0-.22-.08-.36-.25-.1-.11-.18-.2-.25-.26-.17-.16-.36-.27-.55-.34s-.42-.1-.69-.1c-.31,0-.55,.07-.74,.2-.19,.14-.28,.31-.28,.52s.1,.35,.29,.44,.61,.14,1.24,.15c.68,.02,1.17,.13,1.48,.35,.31,.22,.47,.56,.47,1.02s-.17,.79-.52,1.05-.81,.4-1.4,.4c-.19,0-.39-.02-.62-.05-.23-.03-.51-.09-.86-.17-.11,.08-.21,.13-.29,.17-.08,.04-.15,.06-.21,.06-.11,0-.2-.04-.26-.12-.06-.08-.09-.19-.09-.34Z"/><path d="M489.45,24.97l-.63,2.32c-.03,.12-.08,.21-.15,.26s-.16,.07-.29,.07c-.12,0-.21-.03-.27-.09-.07-.06-.12-.17-.18-.34l-1.12-3.56h-.04c-.14,0-.24-.03-.3-.08-.06-.05-.09-.14-.09-.27,0-.11,.03-.19,.1-.25,.06-.06,.16-.09,.28-.09h1.3c.18,0,.29,.02,.36,.08s.09,.14,.09,.26c0,.08-.02,.14-.05,.2s-.08,.09-.14,.1c-.06,.02-.12,.03-.19,.03-.07,0-.16,0-.27,0h-.28l.84,2.93,.63-2.13c.04-.12,.09-.21,.15-.26s.16-.07,.29-.07c.12,0,.21,.03,.28,.09,.07,.06,.13,.18,.18,.33l.61,2.03,.81-2.93h-.33c-.22,0-.38-.02-.45-.08-.08-.05-.12-.14-.12-.27s.03-.22,.09-.27,.17-.07,.34-.07h1.31c.1,0,.18,.03,.23,.09,.05,.06,.08,.14,.08,.25,0,.12-.03,.21-.09,.26s-.17,.08-.33,.09l-1.1,3.66c-.04,.12-.1,.21-.16,.26-.06,.05-.16,.07-.29,.07-.12,0-.21-.03-.28-.09-.07-.06-.12-.18-.17-.33l-.64-2.22Z"/><path d="M494.53,26.65c0-.25,.09-.46,.27-.62,.18-.16,.41-.24,.69-.24s.52,.08,.7,.24,.26,.37,.26,.63-.09,.47-.27,.63c-.18,.16-.41,.24-.7,.24s-.52-.08-.69-.24-.26-.37-.26-.63Z"/><path d="M502.95,23.23v-.02c0-.11,.03-.19,.09-.24s.16-.08,.29-.08,.23,.04,.28,.12c.05,.08,.08,.24,.08,.48v.91c0,.12-.03,.21-.09,.27-.06,.06-.15,.09-.28,.09-.09,0-.16-.03-.23-.08-.06-.05-.14-.16-.23-.32-.16-.26-.35-.46-.57-.6-.22-.14-.48-.2-.77-.2-.51,0-.92,.15-1.24,.45-.32,.3-.48,.69-.48,1.16s.15,.88,.46,1.19c.3,.31,.7,.46,1.17,.46,.22,0,.43-.03,.62-.09,.2-.06,.38-.15,.56-.27,.06-.04,.14-.1,.25-.18,.21-.17,.38-.26,.5-.26,.1,0,.18,.03,.25,.09,.06,.06,.09,.15,.09,.25,0,.26-.24,.52-.73,.79-.49,.27-1,.4-1.55,.4-.71,0-1.29-.23-1.77-.68-.47-.45-.71-1.02-.71-1.69s.23-1.24,.7-1.7c.47-.45,1.05-.68,1.76-.68,.25,0,.5,.03,.74,.1,.25,.07,.51,.17,.79,.31Z"/><path d="M510.05,25.2c0,.7-.24,1.27-.71,1.71s-1.09,.66-1.85,.66-1.37-.22-1.85-.66-.71-1.01-.71-1.71,.24-1.27,.71-1.71,1.09-.66,1.85-.66,1.37,.22,1.85,.66c.48,.44,.72,1.01,.72,1.7Zm-2.56,1.68c.5,0,.91-.16,1.23-.48,.32-.32,.48-.72,.48-1.21s-.16-.9-.48-1.22-.73-.48-1.23-.48-.91,.16-1.23,.48c-.32,.32-.48,.73-.48,1.22s.16,.9,.48,1.21,.73,.47,1.23,.47Z"/><path d="M515.3,24.73c0-.46-.04-.77-.12-.93-.08-.16-.22-.24-.43-.24-.24,0-.43,.1-.57,.31-.14,.21-.21,.49-.21,.86v2.03h.09c.2,0,.33,.02,.39,.07,.07,.05,.1,.14,.1,.27,0,.12-.03,.21-.08,.26s-.14,.09-.25,.09h-.62c-.14,0-.24-.03-.29-.1-.05-.07-.08-.21-.08-.42v-2.58c0-.24-.06-.44-.17-.58-.11-.14-.26-.21-.45-.21-.15,0-.28,.04-.4,.13-.12,.09-.23,.21-.32,.38v2.69h.18c.19,0,.32,.02,.39,.07,.07,.05,.1,.14,.1,.26,0,.13-.03,.23-.08,.28-.05,.05-.16,.08-.32,.08h-1.3c-.13,0-.22-.03-.28-.09-.06-.06-.09-.15-.09-.27,0-.13,.04-.22,.11-.27,.08-.05,.22-.07,.44-.07h.1v-3.13h-.09c-.23,0-.38-.03-.46-.08-.08-.05-.12-.14-.12-.27,0-.11,.03-.2,.1-.25s.16-.08,.29-.08h.75c.11,0,.18,.02,.21,.06,.04,.04,.05,.12,.06,.24,.13-.14,.28-.25,.43-.32s.33-.1,.52-.1c.23,0,.42,.05,.56,.15s.26,.25,.33,.45c.14-.2,.29-.35,.47-.45,.18-.1,.38-.15,.62-.15,.42,0,.73,.14,.92,.41,.19,.27,.29,.72,.29,1.33v2.21h.08c.2,0,.33,.02,.4,.07,.07,.05,.1,.14,.1,.26,0,.12-.03,.21-.09,.26s-.14,.09-.26,.09h-.59c-.13,0-.23-.04-.29-.12s-.09-.2-.09-.37v-2.23Z"/></g></g></svg>